<mxfile host="app.diagrams.net" agent="Mozilla/5.0 (Windows NT 10.0; Win64; x64) AppleWebKit/537.36 (KHTML, like Gecko) Chrome/134.0.0.0 Safari/537.36" scale="1" border="100" version="26.1.3">
  <diagram name="Page-1" id="kxrtQBPMnSYleZCFBnPV">
    <mxGraphModel dx="1512" dy="1145" grid="1" gridSize="10" guides="1" tooltips="1" connect="1" arrows="1" fold="1" page="0" pageScale="1" pageWidth="827" pageHeight="1169" math="0" shadow="0">
      <root>
        <mxCell id="0" />
        <mxCell id="1" parent="0" />
        <mxCell id="YCWfUdo7x6KPriQirSMr-10" style="edgeStyle=orthogonalEdgeStyle;rounded=0;orthogonalLoop=1;jettySize=auto;html=1;exitX=1;exitY=0.25;exitDx=0;exitDy=0;entryX=0;entryY=0.5;entryDx=0;entryDy=0;" parent="1" source="YCWfUdo7x6KPriQirSMr-1" target="YCWfUdo7x6KPriQirSMr-6" edge="1">
          <mxGeometry relative="1" as="geometry" />
        </mxCell>
        <mxCell id="YCWfUdo7x6KPriQirSMr-18" value="Prikaz narudžbi" style="edgeLabel;html=1;align=center;verticalAlign=middle;resizable=0;points=[];" parent="YCWfUdo7x6KPriQirSMr-10" vertex="1" connectable="0">
          <mxGeometry x="-0.031" y="1" relative="1" as="geometry">
            <mxPoint as="offset" />
          </mxGeometry>
        </mxCell>
        <mxCell id="YCWfUdo7x6KPriQirSMr-11" style="edgeStyle=orthogonalEdgeStyle;rounded=0;orthogonalLoop=1;jettySize=auto;html=1;exitX=1;exitY=0.75;exitDx=0;exitDy=0;entryX=0;entryY=0.5;entryDx=0;entryDy=0;" parent="1" source="YCWfUdo7x6KPriQirSMr-1" target="YCWfUdo7x6KPriQirSMr-5" edge="1">
          <mxGeometry relative="1" as="geometry" />
        </mxCell>
        <mxCell id="YCWfUdo7x6KPriQirSMr-19" value="Automatska narudžba" style="edgeLabel;html=1;align=center;verticalAlign=middle;resizable=0;points=[];" parent="YCWfUdo7x6KPriQirSMr-11" vertex="1" connectable="0">
          <mxGeometry x="-0.0731" y="-2" relative="1" as="geometry">
            <mxPoint as="offset" />
          </mxGeometry>
        </mxCell>
        <mxCell id="YCWfUdo7x6KPriQirSMr-13" style="edgeStyle=orthogonalEdgeStyle;rounded=0;orthogonalLoop=1;jettySize=auto;html=1;exitX=0.5;exitY=1;exitDx=0;exitDy=0;entryX=0.5;entryY=0;entryDx=0;entryDy=0;" parent="1" source="YCWfUdo7x6KPriQirSMr-1" target="YCWfUdo7x6KPriQirSMr-4" edge="1">
          <mxGeometry relative="1" as="geometry" />
        </mxCell>
        <mxCell id="YCWfUdo7x6KPriQirSMr-1" value="0. Sustav za upravljanje ugostiteljskim objektom (SUUO)" style="rounded=0;whiteSpace=wrap;html=1;" parent="1" vertex="1">
          <mxGeometry x="-480" width="240" height="80" as="geometry" />
        </mxCell>
        <mxCell id="YCWfUdo7x6KPriQirSMr-9" style="edgeStyle=orthogonalEdgeStyle;rounded=0;orthogonalLoop=1;jettySize=auto;html=1;entryX=0;entryY=0.25;entryDx=0;entryDy=0;" parent="1" source="YCWfUdo7x6KPriQirSMr-2" target="YCWfUdo7x6KPriQirSMr-1" edge="1">
          <mxGeometry relative="1" as="geometry" />
        </mxCell>
        <mxCell id="YCWfUdo7x6KPriQirSMr-14" value="Text" style="edgeLabel;html=1;align=center;verticalAlign=middle;resizable=0;points=[];" parent="YCWfUdo7x6KPriQirSMr-9" vertex="1" connectable="0">
          <mxGeometry x="-0.2251" relative="1" as="geometry">
            <mxPoint y="21" as="offset" />
          </mxGeometry>
        </mxCell>
        <mxCell id="YCWfUdo7x6KPriQirSMr-15" value="Zahtjev za rezervaciju" style="edgeLabel;html=1;align=center;verticalAlign=middle;resizable=0;points=[];" parent="YCWfUdo7x6KPriQirSMr-9" vertex="1" connectable="0">
          <mxGeometry x="0.0322" y="4" relative="1" as="geometry">
            <mxPoint x="-14" as="offset" />
          </mxGeometry>
        </mxCell>
        <mxCell id="YCWfUdo7x6KPriQirSMr-2" value="Gost" style="rounded=1;whiteSpace=wrap;html=1;" parent="1" vertex="1">
          <mxGeometry x="-680" y="-110" width="120" height="60" as="geometry" />
        </mxCell>
        <mxCell id="YCWfUdo7x6KPriQirSMr-8" style="edgeStyle=orthogonalEdgeStyle;rounded=0;orthogonalLoop=1;jettySize=auto;html=1;entryX=0;entryY=0.75;entryDx=0;entryDy=0;" parent="1" source="YCWfUdo7x6KPriQirSMr-3" target="YCWfUdo7x6KPriQirSMr-1" edge="1">
          <mxGeometry relative="1" as="geometry" />
        </mxCell>
        <mxCell id="YCWfUdo7x6KPriQirSMr-16" value="Nova narudžba" style="edgeLabel;html=1;align=center;verticalAlign=middle;resizable=0;points=[];" parent="YCWfUdo7x6KPriQirSMr-8" vertex="1" connectable="0">
          <mxGeometry x="0.0158" y="3" relative="1" as="geometry">
            <mxPoint as="offset" />
          </mxGeometry>
        </mxCell>
        <mxCell id="YCWfUdo7x6KPriQirSMr-3" value="Konobar" style="rounded=1;whiteSpace=wrap;html=1;" parent="1" vertex="1">
          <mxGeometry x="-680" y="130" width="120" height="60" as="geometry" />
        </mxCell>
        <mxCell id="YCWfUdo7x6KPriQirSMr-12" style="edgeStyle=orthogonalEdgeStyle;rounded=0;orthogonalLoop=1;jettySize=auto;html=1;exitX=0.5;exitY=0;exitDx=0;exitDy=0;entryX=0.5;entryY=1;entryDx=0;entryDy=0;" parent="1" source="YCWfUdo7x6KPriQirSMr-4" target="YCWfUdo7x6KPriQirSMr-1" edge="1">
          <mxGeometry relative="1" as="geometry" />
        </mxCell>
        <mxCell id="YCWfUdo7x6KPriQirSMr-17" value="Zahtjevi / izvještaji" style="edgeLabel;html=1;align=center;verticalAlign=middle;resizable=0;points=[];" parent="YCWfUdo7x6KPriQirSMr-12" vertex="1" connectable="0">
          <mxGeometry x="0.1127" relative="1" as="geometry">
            <mxPoint as="offset" />
          </mxGeometry>
        </mxCell>
        <mxCell id="YCWfUdo7x6KPriQirSMr-4" value="Vlasnik / Menadžer" style="rounded=1;whiteSpace=wrap;html=1;" parent="1" vertex="1">
          <mxGeometry x="-419.5" y="130" width="120" height="60" as="geometry" />
        </mxCell>
        <mxCell id="YCWfUdo7x6KPriQirSMr-5" value="Dobavljači" style="rounded=1;whiteSpace=wrap;html=1;" parent="1" vertex="1">
          <mxGeometry x="-160" y="130" width="120" height="60" as="geometry" />
        </mxCell>
        <mxCell id="YCWfUdo7x6KPriQirSMr-6" value="Kuhinjsko osoblje" style="rounded=1;whiteSpace=wrap;html=1;" parent="1" vertex="1">
          <mxGeometry x="-160" y="-110" width="120" height="60" as="geometry" />
        </mxCell>
      </root>
    </mxGraphModel>
  </diagram>
</mxfile>
